<svg width="12" height="15" fill="none" xmlns="http://www.w3.org/2000/svg"><mask id="a" fill="#fff"><path fill-rule="evenodd" clip-rule="evenodd" d="M1.757 1.82a5.855 5.855 0 0 1 8.486 0c2.343 2.426 2.343 6.36 0 8.787L6 15l-4.243-4.393c-2.343-2.427-2.343-6.36 0-8.787zM6.18 8.393c1.064 0 1.926-.893 1.926-1.994s-.862-1.994-1.926-1.994c-1.063 0-1.925.893-1.925 1.994s.862 1.994 1.925 1.994z"/></mask><path fill-rule="evenodd" clip-rule="evenodd" d="M1.757 1.82a5.855 5.855 0 0 1 8.486 0c2.343 2.426 2.343 6.36 0 8.787L6 15l-4.243-4.393c-2.343-2.427-2.343-6.36 0-8.787zM6.18 8.393c1.064 0 1.926-.893 1.926-1.994s-.862-1.994-1.926-1.994c-1.063 0-1.925.893-1.925 1.994s.862 1.994 1.925 1.994z" fill="#323232"/><path d="M10.243 1.82 8.804 3.21l1.439-1.39zm-8.486 0 1.439 1.39-1.439-1.39zm8.486 8.787 1.438 1.389-1.438-1.39zM6 15l-1.439 1.39L6 17.88l1.439-1.49L6 15zm-4.243-4.393 1.439-1.39-1.439 1.39zM11.681.43A7.855 7.855 0 0 0 .32.43l2.877 2.78c1.557-1.613 4.051-1.613 5.608 0L11.681.43zm0 11.566c3.092-3.202 3.092-8.364 0-11.566L8.804 3.21c1.595 1.65 1.595 4.356 0 6.007l2.877 2.779zM7.44 16.389l4.242-4.393-2.877-2.779-4.243 4.394 2.878 2.778zm-7.12-4.393 4.242 4.393 2.878-2.778-4.243-4.394-2.877 2.779zM.319.43c-3.092 3.202-3.092 8.364 0 11.566l2.877-2.779c-1.595-1.651-1.595-4.356 0-6.008L.319.43zM6.105 6.4a.052.052 0 0 1-.003.019c-.001.003-.002.003 0 0a.077.077 0 0 1 .024-.015.137.137 0 0 1 .053-.01v4c2.233 0 3.926-1.855 3.926-3.995h-4zm.074.005a.138.138 0 0 1-.053-.011.077.077 0 0 1-.024-.015c-.002-.002-.001-.002 0 0 0 .002.003.007.003.02h4c0-2.14-1.693-3.994-3.926-3.994v4zm.075-.006c0-.013.002-.018.003-.02 0-.002.001-.002 0 0a.077.077 0 0 1-.025.015.138.138 0 0 1-.053.011v-4c-2.233 0-3.925 1.855-3.925 3.994h4zm-.075-.006c.017 0 .037.004.053.011a.077.077 0 0 1 .024.016c.002.002.002.002 0-.001a.051.051 0 0 1-.002-.02h-4c0 2.14 1.692 3.994 3.925 3.994v-4z" fill="#323232" mask="url(#a)"/></svg>