<svg width="148" height="32" fill="none" xmlns="http://www.w3.org/2000/svg"><path fill-rule="evenodd" clip-rule="evenodd" d="M0 .873v30.254h9.599v-9.6h2.779l4.493 9.6h11.053l-5.752-10.815a10.326 10.326 0 0 0 5.461-9.112C27.633 5.496 23.01.873 17.307.873H0zm15.852 8.145H9.308v4.364h6.544a2.182 2.182 0 0 0 0-4.364zM119.841.873v30.254h9.599v-9.6h2.778l4.494 9.6h11.053l-5.752-10.815a10.326 10.326 0 0 0 5.461-9.112c0-5.704-4.623-10.327-10.326-10.327h-17.307zm15.852 8.145h-6.544v4.364h6.544a2.182 2.182 0 0 0 0-4.364zM93.953 21.818v3.56C90.887 29.39 85.906 32 80.282 32c-7.153 0-13.267-4.222-15.721-10.182h11.774a7.237 7.237 0 0 0 3.947 1.164c1.455 0 2.81-.428 3.947-1.164h-5.11V12.8h14.834v9.018zM73.615 12.8a7.274 7.274 0 0 1 10.862-3.032l7.117-5.638C88.602 1.563 84.634 0 80.282 0c-8.162 0-14.97 5.497-16.534 12.8h9.867zM104.715.873h-9.599V12.8h9.599V9.31h13.962V.873h-13.962zm0 20.945h-9.599v9.31h23.561V22.69h-13.962v-.873zM62.247 16c0 8.837-7.553 16-16.87 16-7.037 0-13.067-4.085-15.598-9.89H41.92a7.272 7.272 0 0 0 10.728-6.4 7.272 7.272 0 0 0-13.938-2.91h-9.867C30.406 5.497 37.215 0 45.377 0c9.317 0 16.87 7.163 16.87 16z" fill="#E41E25"/><path d="M30.159 17.913v.939h1.505c.04 0 .088-.009.14-.026a.464.464 0 0 0 .149-.08.457.457 0 0 0 .173-.37.45.45 0 0 0-.04-.195.397.397 0 0 0-.1-.147.393.393 0 0 0-.149-.088.475.475 0 0 0-.177-.033H30.16zm1.36-1.845h-1.36v.837h1.357c.04 0 .083-.009.126-.026a.38.38 0 0 0 .116-.08.416.416 0 0 0 .087-.133.41.41 0 0 0 .036-.176.438.438 0 0 0-.12-.304.353.353 0 0 0-.115-.084.264.264 0 0 0-.127-.034zm.286 3.884h-3.008v-4.987h2.802c.258 0 .489.03.693.091.205.062.38.152.524.272.145.12.256.268.333.444.077.175.115.38.115.612 0 .1-.017.2-.05.297a1.159 1.159 0 0 1-.127.271c-.053.08-.114.153-.184.217a.715.715 0 0 1-.21.135c.111.044.217.104.318.18a1.344 1.344 0 0 1 .452.576c.046.117.069.242.069.374 0 .283-.052.522-.156.715-.1.193-.233.35-.397.47-.164.119-.35.204-.556.256-.205.051-.411.077-.618.077zM34.648 17.45c0-.363.071-.703.213-1.018.142-.318.335-.596.578-.833.246-.237.532-.423.86-.557.33-.137.683-.206 1.058-.206.374 0 .724.069 1.052.206a2.648 2.648 0 0 1 1.445 1.39c.142.315.213.655.213 1.019 0 .362-.071.703-.213 1.023a2.647 2.647 0 0 1-.582.832 2.745 2.745 0 0 1-1.915.767 2.735 2.735 0 0 1-1.918-.767 2.676 2.676 0 0 1-.578-.832 2.494 2.494 0 0 1-.213-1.023zm1.358.005c0 .207.035.402.105.583.072.178.169.333.29.465a1.276 1.276 0 0 0 .957.418c.187 0 .363-.036.527-.11a1.34 1.34 0 0 0 .43-.308c.123-.132.219-.287.289-.465.07-.181.105-.376.105-.583 0-.21-.035-.405-.105-.583a1.412 1.412 0 0 0-.29-.462 1.27 1.27 0 0 0-.43-.308 1.24 1.24 0 0 0-.527-.114 1.317 1.317 0 0 0-.957.422 1.494 1.494 0 0 0-.394 1.045zM43.264 16.75l-.04.184-.455 1.203h1l-.454-1.203-.036-.183h-.015zm2.63 3.202h-1.438l-.256-.675h-1.86l-.254.675H40.65l1.986-4.99h1.272l1.987 4.99zM47.964 19.952v-3.836h-1.587v-1.151h4.526v1.151H49.32v3.836h-1.355zM62.19 13.381h16.346v.582h-16.26l-.086-.582zM27.342 13.672l24.725-.29.145.581-24.87-.29zM94.244 13.673h25.015v.582H94.244zM62.247 15.127l16.29-.29v.581l-16.29-.29zM94.244 15.127h25.015v.582H94.244zM62.247 16.582l16.29-.291v.582l-16.29-.291zM94.244 16.582h25.015v.582H94.244zM62.247 18.037l16.29-.291v.581l-16.29-.29zM94.244 18.036h25.015v.582H94.244zM61.956 19.49l16.58-.29v.581l-16.58-.29zM94.244 19.49h25.015v.582H94.244zM61.746 20.654h16.79v.582H61.52l.226-.582zM22.543 20.945l27.924-.29-.727.581-27.197-.29zM94.244 20.946h25.015v.582H94.244z" fill="#323232"/></svg>