<svg width="14" height="14" fill="none" xmlns="http://www.w3.org/2000/svg"><path fill-rule="evenodd" clip-rule="evenodd" d="M.352 7.479A6.66 6.66 0 0 1 7.479.352c3.526.24 6.186 3.32 6.186 6.86v.727c0 .96-.546 1.873-1.44 2.226A2.464 2.464 0 0 1 9.36 9.36c-.767.78-1.934 1.173-3.16.886a3.33 3.33 0 0 1-2.48-2.626 3.338 3.338 0 0 1 3.773-3.914c1.653.234 2.84 1.74 2.84 3.414v.833c0 .527.473 1.047 1 1.047s1-.52 1-1.047V7.22c0-2.487-1.613-4.767-4.027-5.38C4.44.839.84 4.445 1.832 8.312c.62 2.407 2.9 4.02 5.387 4.02h2.446c.367 0 .667.3.667.667 0 .366-.3.666-.667.666h-2.46c-3.533 0-6.613-2.66-6.853-6.186zm4.647-.48c0 1.106.893 2 2 2 1.106 0 2-.894 2-2 0-1.107-.894-2-2-2-1.107 0-2 .893-2 2z" fill="#000"/></svg>