<svg width="12" height="12" fill="none" xmlns="http://www.w3.org/2000/svg"><path fill-rule="evenodd" clip-rule="evenodd" d="M6.106 11.518c3.155 0 5.712-2.537 5.712-5.668 0-3.13-2.557-5.668-5.712-5.668S.393 2.719.393 5.85c0 1.07.3 2.073.82 2.927L.182 11.818l3.162-1.005c.82.45 1.76.705 2.762.705zm2.67-4.222c.103.053.173.09.203.143.036.066.036.383-.086.753-.124.37-.727.727-.997.753a.772.772 0 0 0-.124.025c-.19.05-.404.104-1.648-.42-1.386-.587-2.3-2.042-2.49-2.343l-.031-.05C3.527 6.05 3 5.298 3 4.52a1.815 1.815 0 0 1 .516-1.32A.527.527 0 0 1 3.91 3c.051 0 .102.004.151.007.046.003.09.006.132.006l.033-.001c.083-.006.191-.014.3.265l.156.41c.13.335.274.713.299.766.037.08.061.172.012.278a6.76 6.76 0 0 0-.02.043.907.907 0 0 1-.128.221 6.27 6.27 0 0 0-.075.097c-.05.066-.102.133-.146.18-.074.08-.15.165-.065.324.086.158.383.677.821 1.097.472.451.882.642 1.09.739.04.019.073.034.097.047.148.079.234.066.32-.04.086-.106.37-.463.468-.621.098-.159.197-.132.332-.08.135.053.86.437 1.009.516l.08.042z" fill="#323232"/></svg>